<svg width="16" height="16" viewBox="0 0 16 16" fill="none" xmlns="http://www.w3.org/2000/svg">
<path d="M1.09487 13.0786C2.79519 12.3107 2.85987 9.01473 2.86112 8.93157V6.72038C2.86112 4.59222 4.16157 2.76223 6.00955 1.98304C6.01352 0.88889 6.90466 0 7.99962 0C9.0946 0 9.98571 0.888943 9.98971 1.98298C11.8376 2.76217 13.1381 4.59216 13.1381 6.72032V8.93152C13.1393 9.01468 13.204 12.3106 14.9044 13.0785C15.0981 13.166 15.2045 13.3769 15.1598 13.5846C15.115 13.7925 14.9313 13.9409 14.7187 13.9409H10.4081C10.3197 14.427 10.0899 14.8792 9.73831 15.2455C9.27138 15.732 8.65389 15.9999 7.99969 15.9999C7.34544 15.9999 6.72795 15.732 6.26108 15.2455C5.90947 14.8792 5.67961 14.427 5.5913 13.9409H1.2807C1.06813 13.9409 0.88439 13.7925 0.839605 13.5846C0.794769 13.3769 0.901174 13.166 1.09487 13.0786ZM3.33469 11.4996C3.15595 12.0415 2.90285 12.5857 2.54395 13.0386H13.4553C13.0965 12.5858 12.8434 12.0416 12.6646 11.4996H3.33469ZM7.99962 0.902354C7.50432 0.902354 7.08555 1.23517 6.95452 1.68881C7.29208 1.6188 7.64163 1.58188 7.99962 1.58188C8.3576 1.58188 8.70715 1.61877 9.04472 1.68881C8.91366 1.23519 8.49488 0.902354 7.99962 0.902354ZM12.2357 8.93429V6.7203C12.2357 4.38453 10.3354 2.48424 7.99962 2.48424C5.66379 2.48424 3.7635 4.38453 3.7635 6.7203V8.93797C3.7629 9.00585 3.75234 9.71913 3.57258 10.5972H12.4268C12.2469 9.71829 12.2363 9.00375 12.2357 8.93429ZM7.99962 15.0977C8.68827 15.0977 9.28929 14.6011 9.48221 13.9409H6.51708C6.70999 14.6011 7.31091 15.0977 7.99962 15.0977Z" fill="currentColor"/>
<path d="M8.00006 3.11726C9.94124 3.11726 11.5205 4.69648 11.5205 6.63764C11.5205 6.88681 11.3185 7.08883 11.0693 7.08883C10.8201 7.08883 10.6181 6.88681 10.6181 6.63764C10.6181 5.19405 9.44367 4.01962 8.00003 4.01962C7.75085 4.01962 7.54884 3.8176 7.54884 3.56843C7.54887 3.31923 7.75088 3.11726 8.00006 3.11726Z" fill="currentColor"/>
</svg>
