<svg width="24" height="25" viewBox="0 0 24 25" fill="none" xmlns="http://www.w3.org/2000/svg">
<path d="M5.75 8.5C5.75 8.08579 5.41421 7.75 5 7.75C4.58579 7.75 4.25 8.08579 4.25 8.5H5.75ZM19.75 8.5C19.75 8.08579 19.4142 7.75 19 7.75C18.5858 7.75 18.25 8.08579 18.25 8.5H19.75ZM14.75 11.5C14.75 11.0858 14.4142 10.75 14 10.75C13.5858 10.75 13.25 11.0858 13.25 11.5H14.75ZM13.25 17.5C13.25 17.9142 13.5858 18.25 14 18.25C14.4142 18.25 14.75 17.9142 14.75 17.5H13.25ZM10.75 11.5C10.75 11.0858 10.4142 10.75 10 10.75C9.58579 10.75 9.25 11.0858 9.25 11.5H10.75ZM9.25 17.5C9.25 17.9142 9.58579 18.25 10 18.25C10.4142 18.25 10.75 17.9142 10.75 17.5H9.25ZM21 6.25C21.4142 6.25 21.75 5.91421 21.75 5.5C21.75 5.08579 21.4142 4.75 21 4.75V6.25ZM3 4.75C2.58579 4.75 2.25 5.08579 2.25 5.5C2.25 5.91421 2.58579 6.25 3 6.25V4.75ZM14.5937 3.3906L13.9697 3.80662L14.5937 3.3906ZM9.40627 3.3906L8.78223 2.97457L9.40627 3.3906ZM9 23.25H15V21.75H9V23.25ZM4.25 8.5V18.5H5.75V8.5H4.25ZM19.75 18.5V8.5H18.25V18.5H19.75ZM15 23.25C17.6234 23.25 19.75 21.1234 19.75 18.5H18.25C18.25 20.2949 16.7949 21.75 15 21.75V23.25ZM9 21.75C7.20507 21.75 5.75 20.2949 5.75 18.5H4.25C4.25 21.1234 6.37665 23.25 9 23.25V21.75ZM13.25 11.5V17.5H14.75V11.5H13.25ZM9.25 11.5L9.25 17.5H10.75L10.75 11.5H9.25ZM11.0704 3.25H12.9296V1.75H11.0704V3.25ZM13.9697 3.80662L15.376 5.91603L16.624 5.08397L15.2178 2.97457L13.9697 3.80662ZM16 4.75H8V6.25H16V4.75ZM8.62404 5.91603L10.0303 3.80662L8.78223 2.97457L7.37596 5.08397L8.62404 5.91603ZM16 6.25H21V4.75H16V6.25ZM8 4.75H3V6.25H8V4.75ZM12.9296 3.25C13.3476 3.25 13.7379 3.45888 13.9697 3.80662L15.2178 2.97457C14.7077 2.20953 13.8491 1.75 12.9296 1.75V3.25ZM11.0704 1.75C10.1509 1.75 9.29226 2.20953 8.78223 2.97457L10.0303 3.80662C10.2621 3.45888 10.6524 3.25 11.0704 3.25V1.75Z" fill="#707B81"/>
</svg>
