<svg width="20" height="20" viewBox="0 0 20 20" fill="none" xmlns="http://www.w3.org/2000/svg">
<path d="M1.87503 3.26918V9.61418C1.87504 11.6197 2.48279 13.5782 3.61816 15.2314C4.75353 16.8846 6.36321 18.155 8.23503 18.875L9.10253 19.2083C9.68023 19.4306 10.3198 19.4306 10.8975 19.2083L11.765 18.875C13.6368 18.155 15.2465 16.8846 16.3819 15.2314C17.5173 13.5782 18.125 11.6197 18.125 9.61418V3.26918C18.1266 3.03042 18.0592 2.79628 17.9309 2.59492C17.8026 2.39356 17.6188 2.23357 17.4017 2.13418C15.0682 1.11567 12.546 0.601398 10 0.625015C7.45407 0.601398 4.93183 1.11567 2.59836 2.13418C2.38126 2.23357 2.1975 2.39356 2.06917 2.59492C1.94085 2.79628 1.87343 3.03042 1.87503 3.26918V3.26918Z" stroke="currentColor" stroke-width="1.25" stroke-linecap="round" stroke-linejoin="round"/>
<path d="M5.625 8.125C5.625 9.11956 6.02009 10.0734 6.72335 10.7766C7.42661 11.4799 8.38044 11.875 9.375 11.875C10.3696 11.875 11.3234 11.4799 12.0266 10.7766C12.7299 10.0734 13.125 9.11956 13.125 8.125C13.125 7.13044 12.7299 6.17661 12.0266 5.47335C11.3234 4.77009 10.3696 4.375 9.375 4.375C8.38044 4.375 7.42661 4.77009 6.72335 5.47335C6.02009 6.17661 5.625 7.13044 5.625 8.125V8.125Z" stroke="currentColor" stroke-width="1.25" stroke-linecap="round" stroke-linejoin="round"/>
<path d="M12.0267 10.7767L14.0625 12.8125" stroke="currentColor" stroke-width="1.25" stroke-linecap="round" stroke-linejoin="round"/>
</svg>
