<svg width="20" height="20" viewBox="0 0 20 20" fill="none" xmlns="http://www.w3.org/2000/svg">
<path d="M1.87503 3.26918V9.61418C1.87504 11.6197 2.48279 13.5782 3.61816 15.2314C4.75353 16.8846 6.36321 18.155 8.23503 18.875L9.10253 19.2083C9.68023 19.4306 10.3198 19.4306 10.8975 19.2083L11.765 18.875C13.6368 18.155 15.2465 16.8846 16.3819 15.2314C17.5173 13.5782 18.125 11.6197 18.125 9.61418V3.26918C18.1266 3.03042 18.0592 2.79628 17.9309 2.59492C17.8026 2.39356 17.6188 2.23357 17.4017 2.13418C15.0682 1.11567 12.546 0.601398 10 0.625015C7.45407 0.601398 4.93183 1.11567 2.59836 2.13418C2.38126 2.23357 2.1975 2.39356 2.06917 2.59492C1.94085 2.79628 1.87343 3.03042 1.87503 3.26918V3.26918Z" stroke="currentColor" stroke-width="1.25" stroke-linecap="round" stroke-linejoin="round"/>
<path d="M14.3334 9.375C14.2136 10.2049 13.8579 10.9828 13.3085 11.6163C12.7592 12.2498 12.0394 12.712 11.2349 12.9481C10.4303 13.1841 9.57486 13.184 8.77037 12.9477C7.96588 12.7114 7.24624 12.2489 6.6971 11.6153C6.14796 10.9817 5.79246 10.2036 5.67293 9.37372C5.55339 8.54382 5.67485 7.69704 6.02285 6.9342C6.37085 6.17136 6.93072 5.52458 7.63583 5.07087C8.34093 4.61716 9.16156 4.37561 10 4.375" stroke="currentColor" stroke-width="1.25" stroke-linecap="round" stroke-linejoin="round"/>
<path d="M14.375 5.46835L10.3867 9.45669C10.284 9.55907 10.145 9.61657 10 9.61657C9.85503 9.61657 9.71598 9.55907 9.61334 9.45669L8.36334 8.20252" stroke="currentColor" stroke-width="1.25" stroke-linecap="round" stroke-linejoin="round"/>
</svg>
