<svg width="20" height="20" viewBox="0 0 20 20" fill="none" xmlns="http://www.w3.org/2000/svg">
<path d="M1.87503 3.26918V9.61418C1.87504 11.6197 2.48279 13.5782 3.61816 15.2314C4.75353 16.8846 6.36321 18.155 8.23503 18.875L9.10253 19.2083C9.68023 19.4306 10.3198 19.4306 10.8975 19.2083L11.765 18.875C13.6368 18.155 15.2465 16.8846 16.3819 15.2314C17.5173 13.5782 18.125 11.6197 18.125 9.61418V3.26918C18.1266 3.03042 18.0592 2.79628 17.9309 2.59492C17.8026 2.39356 17.6188 2.23357 17.4017 2.13418C15.0682 1.11567 12.546 0.601398 10 0.625015C7.45407 0.601398 4.93183 1.11567 2.59836 2.13418C2.38126 2.23357 2.1975 2.39356 2.06917 2.59492C1.94085 2.79628 1.87343 3.03042 1.87503 3.26918V3.26918Z" stroke="currentColor" stroke-width="1.25" stroke-linecap="round" stroke-linejoin="round"/>
<path d="M9.63667 5.41168C9.67053 5.34434 9.72243 5.28774 9.78659 5.24818C9.85075 5.20863 9.92463 5.18768 10 5.18768C10.0754 5.18768 10.1493 5.20863 10.2134 5.24818C10.2776 5.28774 10.3295 5.34434 10.3633 5.41168L11.2067 7.11252C11.236 7.17101 11.279 7.22151 11.3322 7.25968C11.3853 7.29786 11.4469 7.32256 11.5117 7.33168L13.405 7.60585C13.4789 7.61622 13.5485 7.64697 13.6059 7.69466C13.6633 7.74235 13.7063 7.8051 13.73 7.87585C13.7533 7.94637 13.7562 8.02204 13.7384 8.09414C13.7205 8.16624 13.6827 8.23183 13.6292 8.28335L12.2542 9.61668C12.2079 9.66125 12.1733 9.71642 12.1533 9.77742C12.1332 9.83842 12.1284 9.90339 12.1392 9.96668L12.4633 11.8467C12.4759 11.9202 12.4673 11.9958 12.4387 12.0646C12.4101 12.1335 12.3626 12.1929 12.3017 12.2359C12.2403 12.2794 12.168 12.3052 12.0929 12.3104C12.0177 12.3155 11.9426 12.2998 11.8758 12.265L10.1892 11.3834C10.1307 11.353 10.0659 11.3371 10 11.3371C9.93415 11.3371 9.86927 11.353 9.81084 11.3834L8.12417 12.2659C8.05738 12.3006 7.98229 12.3163 7.90715 12.3112C7.83202 12.306 7.75976 12.2803 7.69834 12.2367C7.6374 12.1937 7.58988 12.1343 7.56127 12.0655C7.53266 11.9966 7.52413 11.921 7.53667 11.8475L7.86084 9.96752C7.87163 9.90422 7.86679 9.83925 7.84675 9.77826C7.8267 9.71726 7.79206 9.66208 7.74584 9.61752L6.37084 8.28418C6.31735 8.23266 6.2795 8.16707 6.26166 8.09497C6.24382 8.02288 6.24671 7.94721 6.27001 7.87668C6.29383 7.80598 6.33684 7.74329 6.39423 7.69561C6.45162 7.64793 6.52113 7.61714 6.59501 7.60668L8.48917 7.33335C8.5538 7.3241 8.61523 7.29934 8.66821 7.26117C8.72118 7.223 8.76411 7.17257 8.79334 7.11418L9.63667 5.41168Z" stroke="currentColor" stroke-width="1.25" stroke-linecap="round" stroke-linejoin="round"/>
</svg>
