<svg width="20" height="20" viewBox="0 0 20 20" fill="none" xmlns="http://www.w3.org/2000/svg">
<path d="M2.8125 6.5625C2.8125 7.47418 3.17466 8.34852 3.81932 8.99318C4.46398 9.63784 5.33832 10 6.25 10C7.16168 10 8.03602 9.63784 8.68068 8.99318C9.32534 8.34852 9.6875 7.47418 9.6875 6.5625C9.6875 5.65082 9.32534 4.77648 8.68068 4.13182C8.03602 3.48716 7.16168 3.125 6.25 3.125C5.33832 3.125 4.46398 3.48716 3.81932 4.13182C3.17466 4.77648 2.8125 5.65082 2.8125 6.5625V6.5625Z" stroke="currentColor" stroke-width="1.25" stroke-linecap="round" stroke-linejoin="round"/>
<path d="M0.625 16.875C0.625 15.3832 1.21763 13.9524 2.27252 12.8975C3.32742 11.8426 4.75816 11.25 6.25 11.25C7.74184 11.25 9.17258 11.8426 10.2275 12.8975C11.2824 13.9524 11.875 15.3832 11.875 16.875" stroke="currentColor" stroke-width="1.25" stroke-linecap="round" stroke-linejoin="round"/>
<path d="M11.96 8.4375C11.96 9.18342 12.2563 9.89879 12.7838 10.4262C13.3112 10.9537 14.0266 11.25 14.7725 11.25C15.5184 11.25 16.2338 10.9537 16.7613 10.4262C17.2887 9.89879 17.585 9.18342 17.585 8.4375C17.585 7.69158 17.2887 6.97621 16.7613 6.44876C16.2338 5.92132 15.5184 5.625 14.7725 5.625C14.0266 5.625 13.3112 5.92132 12.7838 6.44876C12.2563 6.97621 11.96 7.69158 11.96 8.4375V8.4375Z" stroke="currentColor" stroke-width="1.25" stroke-linecap="round" stroke-linejoin="round"/>
<path d="M13.1775 12.5567C13.8734 12.3002 14.621 12.2156 15.3566 12.3101C16.0922 12.4045 16.7941 12.6753 17.4026 13.0993C18.0111 13.5233 18.5082 14.088 18.8516 14.7454C19.195 15.4027 19.3746 16.1333 19.375 16.875" stroke="currentColor" stroke-width="1.25" stroke-linecap="round" stroke-linejoin="round"/>
</svg>
