<svg width="184" height="51" viewBox="0 0 184 51" fill="none" xmlns="http://www.w3.org/2000/svg">
<path d="M8.54911 0.38163C12.9927 0.215229 15.8666 2.77779 18.0884 8.00277C20.8173 14.3925 23.5946 20.982 26.2994 27.4383C29.2698 34.5603 32.9165 36.3574 37.7223 31.2323C40.3788 32.8963 39.8717 38.687 39.5094 41.8819C37.9155 45.4762 34.4621 46.5078 31.6365 46.3082C27.6035 46.0086 23.7878 43.08 21.0588 39.0531C14.0312 26.207 7.0035 13.3276 0 0.414902C2.8497 0.414902 5.6994 0.414909 8.54911 0.38163Z" fill="white"/>
<path d="M37.7221 31.1991C37.7221 31.1991 37.2633 31.9645 36.4422 33.2624C32.5057 39.3527 26.4199 47.2734 21.0586 39.0532C22.5559 41.7821 24.343 44.0452 26.2508 45.9754C31.902 51.7995 41.0065 50.6679 47.8168 50.4017C51.0771 50.2686 51.8016 44.9438 50.4975 41.5825C49.0485 37.8551 47.4546 33.8948 46.0297 30.2672C43.8562 24.7427 39.8956 27.4384 37.7221 31.1991Z" fill="white"/>
<path d="M67.4498 50.2861C63.0062 50.4525 60.1324 47.8899 57.9106 42.6649C55.1816 36.2752 52.4044 29.6857 49.6996 23.2294C46.7291 16.1074 43.0825 14.3103 38.2766 19.4354C35.6201 17.7714 36.1273 11.9807 36.4895 8.78581C38.0834 5.19156 41.5369 4.15987 44.3624 4.35955C48.3713 4.65907 52.2112 7.58773 54.9401 11.6146C61.9678 24.4607 68.9954 37.3401 75.9989 50.2528C73.1492 50.2528 70.2995 50.2528 67.4498 50.2861Z" fill="white"/>
<path d="M38.3003 19.468C38.3003 19.468 38.7592 18.7026 39.5803 17.4047C43.5167 11.3144 49.5784 3.39376 54.9638 11.6139C53.4665 8.88498 51.6794 6.62192 49.7716 4.69168C44.1205 -1.13234 35.0159 -0.000814438 28.2056 0.265427C24.9454 0.398548 24.2209 5.72336 25.525 9.08465C26.974 12.812 28.5679 16.7724 29.9927 20.3666C32.1421 25.9244 36.1027 23.2287 38.3003 19.468Z" fill="white"/>
<path d="M89.9425 13.928H94.2265V23.516H105.481V13.928H109.765V38H105.481V27.392H94.2265V38H89.9425V13.928ZM125.31 35.756H125.208C124.618 36.6853 123.87 37.3653 122.964 37.796C122.057 38.204 121.06 38.408 119.972 38.408C119.224 38.408 118.487 38.306 117.762 38.102C117.059 37.898 116.424 37.592 115.858 37.184C115.314 36.776 114.872 36.266 114.532 35.654C114.192 35.042 114.022 34.328 114.022 33.512C114.022 32.628 114.18 31.88 114.498 31.268C114.815 30.6333 115.234 30.112 115.756 29.704C116.3 29.2733 116.923 28.9333 117.626 28.684C118.328 28.4347 119.054 28.2533 119.802 28.14C120.572 28.004 121.343 27.9247 122.114 27.902C122.884 27.8567 123.61 27.834 124.29 27.834H125.31V27.392C125.31 26.372 124.958 25.6127 124.256 25.114C123.553 24.5927 122.658 24.332 121.57 24.332C120.708 24.332 119.904 24.4907 119.156 24.808C118.408 25.1027 117.762 25.5107 117.218 26.032L115.076 23.89C115.982 22.9607 117.036 22.292 118.238 21.884C119.462 21.476 120.72 21.272 122.012 21.272C123.168 21.272 124.142 21.408 124.936 21.68C125.729 21.9293 126.386 22.258 126.908 22.666C127.429 23.074 127.826 23.55 128.098 24.094C128.392 24.6153 128.596 25.148 128.71 25.692C128.846 26.236 128.925 26.7687 128.948 27.29C128.97 27.7887 128.982 28.2307 128.982 28.616V38H125.31V35.756ZM125.072 30.69H124.222C123.655 30.69 123.02 30.7127 122.318 30.758C121.615 30.8033 120.946 30.9167 120.312 31.098C119.7 31.2567 119.178 31.506 118.748 31.846C118.317 32.1633 118.102 32.6167 118.102 33.206C118.102 33.5913 118.181 33.92 118.34 34.192C118.521 34.4413 118.748 34.6567 119.02 34.838C119.292 35.0193 119.598 35.1553 119.938 35.246C120.278 35.314 120.618 35.348 120.958 35.348C122.363 35.348 123.394 35.0193 124.052 34.362C124.732 33.682 125.072 32.764 125.072 31.608V30.69ZM133.711 12.296H137.791V23.754H137.893C138.097 23.482 138.358 23.21 138.675 22.938C138.993 22.6433 139.378 22.3713 139.831 22.122C140.285 21.8727 140.806 21.6687 141.395 21.51C141.985 21.3513 142.665 21.272 143.435 21.272C144.591 21.272 145.657 21.4987 146.631 21.952C147.606 22.3827 148.433 22.9833 149.113 23.754C149.816 24.5247 150.36 25.4313 150.745 26.474C151.131 27.5167 151.323 28.6387 151.323 29.84C151.323 31.0413 151.142 32.1633 150.779 33.206C150.417 34.2487 149.884 35.1553 149.181 35.926C148.479 36.6967 147.629 37.3087 146.631 37.762C145.634 38.1927 144.512 38.408 143.265 38.408C142.109 38.408 141.033 38.1813 140.035 37.728C139.038 37.2747 138.245 36.5493 137.655 35.552H137.587V38H133.711V12.296ZM147.243 29.84C147.243 29.2053 147.13 28.5933 146.903 28.004C146.699 27.4147 146.382 26.8933 145.951 26.44C145.543 25.9867 145.045 25.624 144.455 25.352C143.866 25.08 143.197 24.944 142.449 24.944C141.701 24.944 141.033 25.08 140.443 25.352C139.854 25.624 139.344 25.9867 138.913 26.44C138.505 26.8933 138.188 27.4147 137.961 28.004C137.757 28.5933 137.655 29.2053 137.655 29.84C137.655 30.4747 137.757 31.0867 137.961 31.676C138.188 32.2653 138.505 32.7867 138.913 33.24C139.344 33.6933 139.854 34.056 140.443 34.328C141.033 34.6 141.701 34.736 142.449 34.736C143.197 34.736 143.866 34.6 144.455 34.328C145.045 34.056 145.543 33.6933 145.951 33.24C146.382 32.7867 146.699 32.2653 146.903 31.676C147.13 31.0867 147.243 30.4747 147.243 29.84ZM155.467 12.296H159.547V23.754H159.649C159.853 23.482 160.114 23.21 160.431 22.938C160.749 22.6433 161.134 22.3713 161.587 22.122C162.041 21.8727 162.562 21.6687 163.151 21.51C163.741 21.3513 164.421 21.272 165.191 21.272C166.347 21.272 167.413 21.4987 168.387 21.952C169.362 22.3827 170.189 22.9833 170.869 23.754C171.572 24.5247 172.116 25.4313 172.501 26.474C172.887 27.5167 173.079 28.6387 173.079 29.84C173.079 31.0413 172.898 32.1633 172.535 33.206C172.173 34.2487 171.64 35.1553 170.937 35.926C170.235 36.6967 169.385 37.3087 168.387 37.762C167.39 38.1927 166.268 38.408 165.021 38.408C163.865 38.408 162.789 38.1813 161.791 37.728C160.794 37.2747 160.001 36.5493 159.411 35.552H159.343V38H155.467V12.296ZM168.999 29.84C168.999 29.2053 168.886 28.5933 168.659 28.004C168.455 27.4147 168.138 26.8933 167.707 26.44C167.299 25.9867 166.801 25.624 166.211 25.352C165.622 25.08 164.953 24.944 164.205 24.944C163.457 24.944 162.789 25.08 162.199 25.352C161.61 25.624 161.1 25.9867 160.669 26.44C160.261 26.8933 159.944 27.4147 159.717 28.004C159.513 28.5933 159.411 29.2053 159.411 29.84C159.411 30.4747 159.513 31.0867 159.717 31.676C159.944 32.2653 160.261 32.7867 160.669 33.24C161.1 33.6933 161.61 34.056 162.199 34.328C162.789 34.6 163.457 34.736 164.205 34.736C164.953 34.736 165.622 34.6 166.211 34.328C166.801 34.056 167.299 33.6933 167.707 33.24C168.138 32.7867 168.455 32.2653 168.659 31.676C168.886 31.0867 168.999 30.4747 168.999 29.84ZM177.291 21.68H181.371V38H177.291V21.68ZM176.713 16.138C176.713 15.4807 176.951 14.914 177.427 14.438C177.926 13.9393 178.549 13.69 179.297 13.69C180.045 13.69 180.669 13.928 181.167 14.404C181.689 14.8573 181.949 15.4353 181.949 16.138C181.949 16.8407 181.689 17.43 181.167 17.906C180.669 18.3593 180.045 18.586 179.297 18.586C178.549 18.586 177.926 18.348 177.427 17.872C176.951 17.3733 176.713 16.7953 176.713 16.138Z" fill="white"/>
</svg>
