<svg width="512" height="512" viewBox="0 0 512 512" fill="none" xmlns="http://www.w3.org/2000/svg">
<path d="M0 0H512V512H0V0Z" fill="url(#paint0_linear_130_782)"/>
<path d="M117.219 140.098C138.192 139.312 151.757 151.408 162.243 176.069C175.124 206.229 188.232 237.331 200.999 267.804C215.019 301.419 232.231 309.902 254.915 285.711C267.453 293.565 265.059 320.897 263.35 335.977C255.826 352.942 239.526 357.811 226.19 356.869C207.154 355.455 189.144 341.632 176.264 322.625C143.094 261.992 109.923 201.202 76.8672 140.255C90.3176 140.255 103.768 140.255 117.219 140.098Z" fill="white"/>
<path d="M254.915 285.556C254.915 285.556 252.749 289.168 248.873 295.295C230.293 324.04 201.569 361.425 176.264 322.627C183.331 335.507 191.766 346.189 200.771 355.299C227.444 382.788 270.417 377.448 302.561 376.191C317.949 375.563 321.369 350.43 315.214 334.565C308.374 316.972 300.851 298.279 294.126 281.157C283.867 255.082 265.173 267.805 254.915 285.556Z" fill="white"/>
<path d="M395.229 375.644C374.255 376.43 360.691 364.335 350.204 339.673C337.323 309.514 324.215 278.412 311.448 247.938C297.428 214.323 280.216 205.841 257.533 230.031C244.994 222.177 247.388 194.845 249.098 179.765C256.621 162.801 272.921 157.931 286.257 158.874C305.179 160.287 323.303 174.11 336.184 193.117C369.354 253.75 402.524 314.54 435.58 375.487C422.13 375.487 408.679 375.487 395.229 375.644Z" fill="white"/>
<path d="M257.645 230.185C257.645 230.185 259.811 226.572 263.686 220.446C282.266 191.7 310.877 154.315 336.296 193.114C329.229 180.233 320.794 169.552 311.789 160.441C285.116 132.952 242.143 138.293 209.998 139.549C194.61 140.178 191.191 165.311 197.346 181.176C204.185 198.769 211.708 217.461 218.433 234.426C228.578 260.658 247.272 247.935 257.645 230.185Z" fill="white"/>
<defs>
<linearGradient id="paint0_linear_130_782" x1="512" y1="512" x2="-89.4002" y2="287.422" gradientUnits="userSpaceOnUse">
<stop stop-color="#9073ED"/>
<stop offset="1" stop-color="#9073ED" stop-opacity="0.8"/>
</linearGradient>
</defs>
</svg>
